<?xml version="1.0" encoding="utf-8"?>
<!-- Generator: Adobe Illustrator 18.0.0, SVG Export Plug-In . SVG Version: 6.00 Build 0)  -->
<!DOCTYPE svg PUBLIC "-//W3C//DTD SVG 1.1//EN" "http://www.w3.org/Graphics/SVG/1.1/DTD/svg11.dtd">
<svg version="1.1" id="Calque_1" xmlns="http://www.w3.org/2000/svg" xmlns:xlink="http://www.w3.org/1999/xlink" x="0px" y="0px"
	 viewBox="-21.3 -48.8 85.2 97.6" enable-background="new -21.3 -48.8 85.2 97.6" xml:space="preserve">
<g>
	<g>
		<path fill="#01172C" d="M63.9,6.1c0,23.6-19,42.6-42.6,42.6c-23.6,0.2-42.6-19-42.6-42.6c0-23.4,19-42.6,42.6-42.6
			S63.9-17.3,63.9,6.1"/>
		<path fill="#C5DCDC" d="M47.9,18.7l-17-18.8v-24.8h-3.2v26h-13v-26h-3.2v24.8L-5.3,18.7c-1.2,1.4-1.8,2.8-1.8,4.2
			c0,1.2,0.4,2.4,1.4,3.4c0.8,0.8,2.2,1.8,4.4,1.8h45.4c2.2,0,3.6-1,4.4-1.8c0.8-0.8,1.2-2,1.2-3.2C49.7,21.7,49.1,20.1,47.9,18.7"
			/>
		<path fill="#4486B2" d="M27.7,1.1l17.8,19.8c0.6,0.8,1,1.6,1,2.2c0,1-0.8,1.8-2.4,1.8H-1.3c-1.6,0-2.6-0.8-2.6-1.8
			c0-0.6,0.2-1.4,0.8-2.2L14.5,1.1H27.7z"/>
		<path fill="#69A2BD" d="M2.5,23.1c0-0.6,0.2-1.4,0.8-2.2L20.9,1.1h-6.2L-2.9,20.9c-0.6,0.8-0.8,1.6-0.8,2.2c0,1,0.8,1.8,2.6,1.8
			h6.4C3.3,24.9,2.5,24.1,2.5,23.1"/>
		<rect x="8.9" y="-24.9" fill="#C5DCDC" width="5.8" height="2.6"/>
		<rect x="27.7" y="-24.9" fill="#C5DCDC" width="5.8" height="2.6"/>
		<rect x="-0.3" y="13.1" fill="#C5DCDC" width="9.2" height="2.8"/>
		<rect x="7.1" y="5.9" fill="#C5DCDC" width="9.2" height="2.8"/>
		<rect x="11.9" y="-1.7" fill="#C5DCDC" width="9.2" height="2.8"/>
		<rect x="11.9" y="-10.3" fill="#C5DCDC" width="9.2" height="2.8"/>
		<rect x="11.9" y="-18.9" fill="#C5DCDC" width="9.2" height="2.8"/>
		<rect x="30.5" y="-37.7" fill="#4486B2" width="7.8" height="7.8"/>
		<rect x="46.5" y="-32.7" fill="#4486B2" width="7.8" height="7.8"/>
		<rect x="42.7" y="-48.7" fill="#4486B2" width="7.8" height="7.8"/>
	</g>
</g>
</svg>
