<?xml version="1.0" encoding="utf-8"?>
<!-- Generator: Adobe Illustrator 18.0.0, SVG Export Plug-In . SVG Version: 6.00 Build 0)  -->
<!DOCTYPE svg PUBLIC "-//W3C//DTD SVG 1.1//EN" "http://www.w3.org/Graphics/SVG/1.1/DTD/svg11.dtd">
<svg version="1.1" id="Calque_1" xmlns="http://www.w3.org/2000/svg" xmlns:xlink="http://www.w3.org/1999/xlink" x="0px" y="0px"
	 viewBox="0 0 420 100" enable-background="new 0 0 420 100" xml:space="preserve">
<g>
	<g>
		<path fill="#161A2C" d="M72.1,55.5C72.1,75.1,56.2,91,36.6,91C16.9,91,1,75.1,1,55.5c0-19.6,15.9-35.6,35.6-35.6
			C56.2,19.9,72.1,35.8,72.1,55.5z"/>
		<path fill="#D2E2E2" d="M58.7,66L44.5,50.2V29.6h-2.6v21.6l14.9,16.5c0.6,0.6,0.8,1.3,0.8,1.8c0,0.8-0.7,1.5-2.1,1.5H17.7
			c-1.4,0-2.1-0.7-2.1-1.5c0-0.5,0.2-1.2,0.7-1.8L31,51.2V29.6h-2.6v20.6L14.3,66c-1,1.1-1.5,2.3-1.4,3.5c0,1,0.4,2,1.1,2.8
			c0.6,0.6,1.8,1.4,3.7,1.4h37.8c1.9,0,3-0.8,3.7-1.4c0.7-0.7,1.1-1.7,1.1-2.7C60.2,68.3,59.7,67,58.7,66z"/>
		<path fill="#5F8DBB" d="M41.9,51.2l14.9,16.5c0.6,0.6,0.8,1.3,0.8,1.8c0,0.8-0.7,1.5-2.1,1.5H17.7c-1.4,0-2.1-0.7-2.1-1.5
			c0-0.5,0.2-1.1,0.7-1.8L31,51.2H41.9z"/>
		<path fill="#89AEC7" d="M20.8,69.5c0-0.5,0.2-1.1,0.7-1.8l14.7-16.5H31L16.3,67.8c-0.6,0.6-0.7,1.3-0.7,1.8c0,0.8,0.7,1.5,2.1,1.5
			h5.3C21.6,71.1,20.8,70.4,20.8,69.5z"/>
		<rect x="26.2" y="29.6" fill="#D2E2E2" width="4.8" height="2.1"/>
		<rect x="41.9" y="29.6" fill="#D2E2E2" width="4.8" height="2.1"/>
		<rect x="18.6" y="61.3" fill="#D2E2E2" width="7.7" height="2.4"/>
		<rect x="24.7" y="55.2" fill="#D2E2E2" width="7.7" height="2.4"/>
		<rect x="28.6" y="48.9" fill="#D2E2E2" width="7.7" height="2.4"/>
		<rect x="28.6" y="41.7" fill="#D2E2E2" width="7.7" height="2.4"/>
		<rect x="28.6" y="34.6" fill="#D2E2E2" width="7.7" height="2.4"/>
	</g>
	<g>
		<path fill="#161A2C" d="M270.5,46.1c0,0-0.1-1.5-4-1.5c-3.9,0-8.1,3.9-8.8,11.6c-0.7,7.7,5,9.9,7.9,9.9c2.9,0,4.9-2.4,4.9-2.4
			l1.5,1.4c0,0-4.9,6-11,6c-7.5,0-14-7.1-12.1-16.2c1.8-9,9.3-13.6,14.9-13.6c5.6,0,11.5,3,11.5,7.3c0,4.2-5.3,4.9-6.3,1.8
			C267.8,47.3,270.5,46.1,270.5,46.1z"/>
		<path fill="#161A2C" d="M410.3,44.6c-4,0-8.1,3.9-8.8,11.6c-0.7,7.7,5,9.9,7.9,9.9c2.9,0,4.9-2.4,4.9-2.4l1.5,1.4c0,0-4.9,6-11,6
			c-7.5,0-14-7.1-12.1-16.2c1.8-9,9.3-13.6,14.9-13.6c5.6,0,11.5,1,11.5,8.4c0,9.2-19,8.6-19,8.6s-1.5-2.8-0.1-2.8
			c1.4,0,8.4-0.5,11.6-2.7C415.1,50.5,414.2,44.6,410.3,44.6z"/>
		<path fill="#161A2C" d="M324.7,55.5c-3.8-3.3-2.1-8-0.5-10c3.2-4,7.6-4.1,11.3-4.1c5.6,0,9.7,3,9.7,7.3c0,4.2-5.3,4.9-6.3,1.8
			c-1-3.1,1.6-4.3,1.6-4.3s-0.1-1.5-4-1.5c-2.2,0-4.6,1.7-5.7,3.6c-1,1.9-1.4,4,4.1,5.1c5.7,1.2,10.2,2.1,10.2,7.8
			c0,7-5.8,10-13.3,10c-7.4,0-11.1-4.4-11.1-7.9c0-5.4,6.9-6,7.5-1.3c0.4,3-2.6,3.5-2.6,3.5s1.6,2.4,6.2,2.4c6.6,0,7.3-7.1,4.2-8.3
			C333,58.5,328.7,59,324.7,55.5z"/>
		<polyline fill="#161A2C" points="119.9,68.9 126.1,33.3 117.7,33.3 111.4,68.9 		"/>
		<g>
			<polygon fill="#161A2C" points="138.2,37.9 139,33.3 130.6,33.3 129.8,37.9 			"/>
			<path fill="#161A2C" d="M134.7,66.4c-1.4,0-1.1-2-1.1-2l4-22.8h-8.5c0,0-3.7,20.9-3.9,22.3c-0.2,1.4-1,7.1,4.3,7.1
				c5.3,0,8.3-3.7,8.3-3.7l-1-1.8C136.7,65.5,136.1,66.4,134.7,66.4z"/>
		</g>
		<polygon fill="#161A2C" points="200.4,45.7 201.7,41.6 193.4,41.6 192.7,45.7 		"/>
		<g>
			<polygon fill="#161A2C" points="182.9,37.9 183.6,33.3 175.2,33.3 174.4,37.9 			"/>
			<path fill="#161A2C" d="M179.3,66.4c-1.4,0-1.1-2-1.1-2l4-22.8h-8.5c0,0-3.7,20.9-3.9,22.3c-0.2,1.4-1,7.1,4.3,7.1
				c5.3,0,8.3-3.7,8.3-3.7l-1-1.8C181.3,65.5,180.7,66.4,179.3,66.4z"/>
		</g>
		<g>
			<path fill="#161A2C" d="M302,66.4c-1.4,0-1.1-2-1.1-2l4-22.8h-8.5c0,0-3.7,20.9-3.9,22.3c-0.2,1.4-1,7.1,4.3,7.1
				c5.3,0,8.3-3.7,8.3-3.7l-1-1.8C304.1,65.5,303.4,66.4,302,66.4z"/>
		</g>
		<g>
			<polygon fill="#161A2C" points="319.6,37.9 320.4,33.3 311.9,33.3 311.1,37.9 			"/>
			<path fill="#161A2C" d="M316,66.4c-1.4,0-1.1-2-1.1-2l4-22.8h-8.5c0,0-3.7,20.9-3.9,22.3c-0.2,1.4-1,7.1,4.3,7.1
				c5.3,0,8.3-3.7,8.3-3.7l-1-1.8C318.1,65.5,317.4,66.4,316,66.4z"/>
		</g>
		<g>
			<polygon fill="#161A2C" points="361.6,37.9 362.4,33.3 353.9,33.3 353.2,37.9 			"/>
			<path fill="#161A2C" d="M358.1,66.4c-1.4,0-1.1-2-1.1-2l4-22.8h-8.5c0,0-3.7,20.9-3.9,22.3c-0.2,1.4-1,7.1,4.3,7.1
				c5.3,0,8.3-3.7,8.3-3.7l-1-1.8C360.1,65.5,359.4,66.4,358.1,66.4z"/>
		</g>
		<g>
			<path fill="#161A2C" d="M286.5,65.7c-1.4,0-2.3-1.3-2.1-2.5c0.2-1.3,3.8-21.6,3.8-21.6h-8.5c0,0-3.7,20.9-3.9,22.3
				c-0.2,1.4-1,7.1,4.3,7.1c2,0,4.9-0.4,7.1-1.4c3.7-1.6,6.3-4.5,6.3-4.5l-0.7-3.2C292.9,62,288.4,65.7,286.5,65.7z"/>
		</g>
		<g>
			<path fill="#161A2C" d="M367.2,41.6l-5,28.3h8.5c0,0,4.8-26.9,5-28.3H367.2z"/>
		</g>
		<g>
			<path fill="#161A2C" d="M238.2,41.6c0,0-3.7,20.9-3.9,22.3c-0.2,1.4-1,7.1,4.3,7.1c5.3,0,8.3-3.7,8.3-3.7l-1-1.8
				c0,0-0.6,0.9-2,0.9c-1.4,0-1.1-2-1.1-2l4-22.8l0.6-3.7l0.8-4.5h-8.5h-2.6l-0.8,4.5h2.6L238.2,41.6z"/>
		</g>
		<g>
			<path fill="#161A2C" d="M229.8,66.4c-1.4,0-1.1-2-1.1-2l4-22.8h-8.5c0,0-3.7,20.9-3.9,22.3c-0.2,1.4-1,7.1,4.3,7.1
				c5.3,0,8.3-3.7,8.3-3.7l-1-1.8C231.8,65.5,231.1,66.4,229.8,66.4z"/>
		</g>
		<g>
			<path fill="#161A2C" d="M197.3,37.9l0.8-4.5h-8.5l-0.8,4.5l-0.6,3.7c0,0-3.7,20.9-3.9,22.3c-0.2,1.4-1,7.1,4.3,7.1
				c5.3,0,8.3-3.7,8.3-3.7l-1-1.8c0,0-0.6,0.9-2,0.9c-1.4,0-1.1-2-1.1-2l4-22.8L197.3,37.9z"/>
		</g>
		<path fill="#161A2C" d="M156.5,74.1c-0.4,2-1.1,3.1-4,3.9c-3,0.7-7.9-3.9-7.9-3.9l-2.3,2.2c0,0,3.8,5.5,11.3,5.5
			c7.4,0,11.3-6.6,12.4-12.9l4.8-27.4h-8.5L156.5,74.1z"/>
		<path fill="#161A2C" d="M223.3,46.5c0,0-1.3-2-5.3-2c-4,0-8.1,3.9-8.8,11.6c-0.7,7.7,5,9.9,7.9,9.9c2.9,0,4.9-2.4,4.9-2.4l1.5,1.4
			c0,0-4.9,6-11,6c-7.5,0-14-7.1-12.1-16.2c1.8-9,9.3-13.6,14.9-13.6c5.6,0,11.5,3,11.5,7.3C226.7,52.7,223.3,46.5,223.3,46.5z"/>
		<path fill="#161A2C" d="M161.3,46.5c0,0-1.3-2-5.3-2c-4,0-8.1,3.9-8.8,11.6c-0.7,7.7,5,9.9,7.9,9.9c2.9,0,4.9-2.4,4.9-2.4l1.5,1.4
			c0,0-4.9,6-11,6c-7.5,0-14-7.1-12.1-16.2c1.8-9,9.3-13.6,14.9-13.6s11.5,3,11.5,7.3C164.7,52.7,161.3,46.5,161.3,46.5z"/>
		<path fill="#161A2C" d="M115.4,46.5c0,0-1.3-2-5.3-2c-4,0-8.1,3.9-8.8,11.6c-0.7,7.7,5,9.9,7.9,9.9c2.9,0,4.9-2.4,4.9-2.4l5.8,5.3
			c0,0-9.2,2.1-15.3,2.1c-7.5,0-14-7.1-12.1-16.2c1.8-9,9.3-13.6,14.9-13.6c5.6,0,11.5,3,11.5,7.3C118.8,52.7,115.4,46.5,115.4,46.5
			z"/>
		<path fill="#161A2C" d="M374.3,46.9c0,0,8.7-5.4,12.8-5.4s4.4,4.7,4.2,6l-3,16.8c0,0-0.2,2,1.1,2c1.4,0,2-0.9,2-0.9l1,1.8
			c0,0-3,3.7-8.3,3.7c-5.3,0-4.5-5.7-4.3-7.1c0.2-1.4,2.8-16,2.9-16.3c0.1-0.3-0.3-1.1-1-0.9c-0.7,0.3-8.1,3.5-8.1,3.5L374.3,46.9z"
			/>
	</g>
	<rect x="44.2" y="18.9" fill-rule="evenodd" clip-rule="evenodd" fill="#5F8DBB" width="6.5" height="6.5"/>
	<rect x="57.5" y="23.1" fill-rule="evenodd" clip-rule="evenodd" fill="#5F8DBB" width="6.5" height="6.5"/>
	<rect x="54.3" y="9.7" fill-rule="evenodd" clip-rule="evenodd" fill="#5F8DBB" width="6.5" height="6.5"/>
</g>
</svg>
